<?xml version="1.0" encoding="iso-8859-1"?>
<!-- Generator: Adobe Illustrator 19.1.0, SVG Export Plug-In . SVG Version: 6.00 Build 0)  -->
<svg version="1.1" id="Capa_1" xmlns="http://www.w3.org/2000/svg" xmlns:xlink="http://www.w3.org/1999/xlink" x="0px" y="0px"
	 viewBox="0 0 444.975 444.975" style="enable-background:new 0 0 444.975 444.975;" xml:space="preserve">
<g>
	<path d="M441.255,412.365c2.89,5.05,3.64,10.92,2.11,16.54c-1.53,5.61-5.15,10.3-10.2,13.19c-3.34,1.91-7.04,2.88-10.78,2.88
		c-1.92,0-3.86-0.25-5.76-0.77c-5.61-1.53-10.3-5.15-13.19-10.2l-56.8-99.28c-8.01,2.26-16.19,3.37-24.31,3.37
		c-7.88,0-15.7-1.04-23.26-3.05c-32.06,24.19-70.2,37.11-110.56,37.41c-0.48,0.01-0.96,0.02-1.44,0.02c-0.49,0-0.97-0.01-1.45-0.02
		c-49.43-0.37-95.85-19.9-130.69-54.99c-34.88-35.12-54.09-81.73-54.09-131.23c0-49.51,19.21-96.11,54.09-131.23
		c34.85-35.09,81.26-54.62,130.7-54.99c0.95-0.02,1.92-0.02,2.87,0c97.74,0.73,177.99,76.73,184.39,173.76
		c5.47,3.72,10.57,8.07,15.18,13.02c4.6,4.96,8.72,10.51,12.22,16.63c11.94,20.86,15.04,45.13,8.73,68.32
		c-4.36,16.02-12.85,30.2-24.55,41.37L441.255,412.365z M428.895,424.965c0.47-1.75,0.24-3.58-0.66-5.15l-55.61-97.2
		c-1.87,1.26-3.78,2.48-5.75,3.61c-1.99,1.14-4,2.18-6.02,3.15l55.6,97.18c0.9,1.57,2.36,2.7,4.11,3.18
		c1.75,0.47,3.58,0.24,5.15-0.66C427.285,428.175,428.415,426.715,428.895,424.965z M394.545,267.805
		c1.78-6.55,2.66-13.19,2.66-19.8c0-12.9-3.36-25.64-9.94-37.13c-13.83-24.18-39.18-37.74-65.22-37.74
		c-12.62,0-25.4,3.18-37.11,9.89c-35.9,20.53-48.39,66.44-27.85,102.34c13.83,24.17,39.18,37.73,65.22,37.73
		c12.62,0,25.4-3.18,37.12-9.89C376.805,303.265,389.285,287.135,394.545,267.805z M357.015,165.185
		c-3.75-30.69-15.57-58.79-33.26-82.17c-11.2,7.16-23.9,13.38-37.91,18.56c5.71,18.91,9.41,39.08,11.03,60.17
		C316.995,155.845,338.255,157.325,357.015,165.185z M281.075,87.345c12.18-4.53,23.24-9.88,33.04-15.99
		c-19.47-21.51-44.33-38.02-72.41-47.45c1.23,1.16,2.45,2.35,3.65,3.6C259.825,42.475,272.085,63.065,281.075,87.345z
		 M282.235,167.475c-1.32-21.53-4.89-42.04-10.62-61.16c-23.81,7.15-50.16,11.2-77.05,11.83v60.59h70.29
		c3.89-3.22,8.1-6.14,12.63-8.73C279.045,169.105,280.635,168.265,282.235,167.475z M282.145,328.675
		c-5.86-2.9-11.43-6.44-16.59-10.6c-7.12,12.03-15.12,22.26-23.9,30.55C255.895,343.855,269.475,337.175,282.145,328.675z
		 M250.475,193.735h-55.91v60.58c12.92,0.3,25.67,1.4,38.12,3.24C230.325,234.865,236.705,211.945,250.475,193.735z
		 M254.425,307.355c-3.86-4.41-7.34-9.26-10.36-14.54c-3.62-6.32-6.37-12.9-8.32-19.59c-13.37-2.25-27.17-3.56-41.18-3.91v87.6
		C216.885,353.675,238.255,336.025,254.425,307.355z M266.835,92.085c-16.36-43.87-43.27-72.33-72.27-76.54v87.6
		C219.825,102.515,244.525,98.735,266.835,92.085z M179.565,356.925v-87.6c-25.27,0.63-49.97,4.41-72.27,11.06
		C123.655,324.265,150.565,352.725,179.565,356.925z M179.565,254.315v-60.58h-88.14c0.63,25.32,4.42,50.08,11.1,72.42
		C126.335,259.005,152.675,254.955,179.565,254.315z M179.565,178.735v-60.59c-26.89-0.63-53.23-4.68-77.04-11.83
		c-6.68,22.34-10.47,47.09-11.1,72.42H179.565z M179.565,103.145v-87.6c-29.01,4.2-55.92,32.66-72.27,76.54
		C129.595,98.735,154.295,102.515,179.565,103.145z M128.765,27.505c1.22-1.26,2.44-2.47,3.68-3.65
		c-24.95,8.37-47.8,22.51-66.88,41.72c-1.89,1.9-3.72,3.84-5.51,5.81c9.79,6.09,20.84,11.44,33,15.96
		C102.045,63.065,114.295,42.475,128.765,27.505z M132.475,348.625c-1.25-1.18-2.48-2.39-3.7-3.66
		c-14.47-14.97-26.73-35.56-35.72-59.84c-12.17,4.53-23.21,9.87-33,15.96c1.79,1.97,3.62,3.91,5.51,5.81
		C84.645,326.115,107.505,340.255,132.475,348.625z M76.425,178.735c0.63-26.94,4.69-53.33,11.86-77.16
		c-13.99-5.17-26.68-11.38-37.88-18.54c-20.93,27.6-32.91,60.72-34.4,95.7H76.425z M88.285,270.895
		c-7.17-23.83-11.23-50.22-11.86-77.16h-60.42c1.49,34.98,13.47,68.1,34.4,95.7C61.595,282.285,74.285,276.065,88.285,270.895z"/>
	<path style="fill:#F48C6C;" d="M428.235,419.815c0.9,1.57,1.13,3.4,0.66,5.15c-0.48,1.75-1.61,3.21-3.18,4.11
		c-1.57,0.9-3.4,1.13-5.15,0.66c-1.75-0.48-3.21-1.61-4.11-3.18l-55.6-97.18c2.02-0.97,4.03-2.01,6.02-3.15
		c1.97-1.13,3.88-2.35,5.75-3.61L428.235,419.815z"/>
	<path style="fill:#3DD0F2;" d="M397.205,248.005c0,6.61-0.88,13.25-2.66,19.8c-5.26,19.33-17.74,35.46-35.12,45.4
		c-11.72,6.71-24.5,9.89-37.12,9.89c-26.04,0-51.39-13.56-65.22-37.73c-20.54-35.9-8.05-81.81,27.85-102.34
		c11.71-6.71,24.49-9.89,37.11-9.89c26.04,0,51.39,13.56,65.22,37.74C393.845,222.365,397.205,235.105,397.205,248.005z
		 M386.825,265.705c4.7-17.26,2.39-35.33-6.5-50.86c-12.35-21.6-35-33.72-58.26-33.72c-11.27,0-22.69,2.85-33.16,8.84
		c-32.07,18.35-43.23,59.36-24.88,91.43c8.89,15.53,23.29,26.67,40.56,31.37c5.85,1.59,11.79,2.38,17.7,2.38
		c11.52,0,22.9-3,33.16-8.88C370.985,297.385,382.125,282.975,386.825,265.705z"/>
	<path d="M380.325,214.845c8.89,15.53,11.2,33.6,6.5,50.86c-4.7,17.27-15.84,31.68-31.38,40.56c-10.26,5.88-21.64,8.88-33.16,8.88
		c-5.91,0-11.85-0.79-17.7-2.38c-17.27-4.7-31.67-15.84-40.56-31.37c-18.35-32.07-7.19-73.08,24.88-91.43
		c10.47-5.99,21.89-8.84,33.16-8.84C345.325,181.125,367.975,193.245,380.325,214.845z M372.355,261.765
		c3.64-13.4,1.85-27.42-5.05-39.47c-8.91-15.59-24.73-24.8-41.42-26.02c-0.56,17.54-2.57,34.84-5.94,51.31
		c4.58,1.26,9.1,2.62,13.53,4.1c13.38,4.48,25.7,9.92,36.79,16.19C371.075,265.895,371.785,263.865,372.355,261.765z
		 M348.005,293.245c5.7-3.26,10.63-7.49,14.64-12.45c-10.19-5.74-21.56-10.74-33.93-14.88c-3.99-1.34-8.05-2.57-12.17-3.71
		c-1.41,5.37-2.97,10.62-4.68,15.73c-2.22,6.63-4.67,13.02-7.33,19.09c1.31,0.46,2.63,0.9,3.99,1.27
		C321.925,301.935,335.945,300.145,348.005,293.245z M305.365,244.035c3.03-14.98,4.88-30.7,5.47-46.67
		c-4.96,1.11-9.84,2.96-14.48,5.62c-13.84,7.91-22.65,21.27-25.31,35.84C282.815,239.915,294.275,241.655,305.365,244.035z
		 M297.635,273.185c1.58-4.73,3.03-9.58,4.34-14.54c-10.17-2.17-20.68-3.78-31.47-4.81c0.75,6.88,2.89,13.72,6.54,20.11
		c3.64,6.36,8.48,11.76,14.21,16C293.555,284.605,295.695,278.995,297.635,273.185z"/>
</g>
<g>
</g>
<g>
</g>
<g>
</g>
<g>
</g>
<g>
</g>
<g>
</g>
<g>
</g>
<g>
</g>
<g>
</g>
<g>
</g>
<g>
</g>
<g>
</g>
<g>
</g>
<g>
</g>
<g>
</g>
</svg>
